# Blender v2.64 (sub 0) OBJ File: 'Pacman.blend'
# www.blender.org
mtllib PacmanInverseNormal.mtl
o Cylinder
v -1.000000 -0.368226 0.185661
v -1.000000 0.739547 0.185661
v -0.980785 -0.368226 -0.009429
v -0.980785 0.739547 -0.009429
v -0.923879 -0.368226 -0.197023
v -0.923880 0.739547 -0.197023
v -0.831470 -0.368226 -0.369909
v -0.831470 0.739547 -0.369909
v -0.707107 -0.368226 -0.521446
v -0.707107 0.739547 -0.521446
v -0.555570 -0.368226 -0.645809
v -0.555570 0.739547 -0.645809
v -0.382683 -0.368226 -0.738219
v -0.382684 0.739547 -0.738218
v -0.195090 -0.368226 -0.795124
v -0.195090 0.739547 -0.795124
v -0.000000 -0.368225 -0.814339
v -0.000000 0.739547 -0.814339
v 0.195090 -0.368225 -0.795125
v 0.195090 0.739547 -0.795125
v 0.382683 -0.368226 -0.738219
v 0.382683 0.739547 -0.738219
v 0.555570 -0.368225 -0.645809
v 0.555570 0.739547 -0.645809
v 0.707107 -0.368225 -0.521446
v 0.707107 0.739547 -0.521446
v 0.831470 -0.368225 -0.369910
v 0.831469 0.739547 -0.369909
v 0.923880 -0.368225 -0.197023
v 0.923880 0.739547 -0.197023
v 0.980785 -0.368225 -0.009429
v 0.980785 0.739547 -0.009429
v 1.000000 -0.368225 0.185661
v 1.000000 0.739547 0.185661
v 0.980785 -0.368225 0.380751
v 0.980785 0.739547 0.380751
v 0.923880 -0.368226 0.568345
v 0.923879 0.739547 0.568345
v 0.831469 -0.368226 0.741231
v 0.831469 0.739547 0.741231
v 0.707107 -0.368226 0.892768
v 0.707106 0.739547 0.892768
v 0.555570 -0.368226 1.017130
v 0.555570 0.739547 1.017131
v -0.555571 -0.368226 1.017130
v -0.555571 0.739547 1.017130
v -0.707107 -0.368226 0.892767
v -0.707108 0.739547 0.892767
v -0.831470 -0.368226 0.741230
v -0.831470 0.739547 0.741230
v -0.923880 -0.368226 0.568343
v -0.923880 0.739547 0.568343
v -0.980785 -0.368226 0.380750
v -0.980786 0.739547 0.380750
v 0.001962 0.739547 -0.203509
v -0.005036 -0.368226 -0.203509
vn 0.995185 0.000000 0.098017
vn 0.956940 0.000000 0.290285
vn 0.881922 0.000000 0.471396
vn 0.773010 -0.000000 0.634393
vn 0.634393 -0.000000 0.773010
vn 0.471396 -0.000000 0.881922
vn 0.290285 -0.000000 0.956940
vn 0.098018 -0.000000 0.995185
vn -0.098017 -0.000000 0.995185
vn -0.290284 -0.000000 0.956940
vn -0.471397 -0.000000 0.881921
vn -0.634393 -0.000000 0.773011
vn -0.773011 -0.000000 0.634393
vn -0.881921 -0.000000 0.471397
vn -0.956940 -0.000000 0.290284
vn -0.995185 -0.000000 0.098017
vn -0.995185 -0.000000 -0.098018
vn -0.956940 -0.000000 -0.290285
vn -0.881921 -0.000000 -0.471397
vn -0.773010 -0.000000 -0.634394
vn -0.634392 0.000000 -0.773011
vn 0.634394 0.000000 -0.773010
vn 0.773011 0.000000 -0.634393
vn 0.881922 0.000000 -0.471396
vn 0.000000 -1.000000 -0.000000
vn 0.995185 0.000000 -0.098016
vn 0.956941 0.000000 -0.290283
vn -0.000000 -1.000000 -0.000001
vn 0.000000 -1.000000 0.000001
vn -0.000000 -1.000000 -0.000002
vn 0.000001 -1.000000 -0.000002
vn 0.000001 -1.000000 -0.000001
vn -0.000001 -1.000000 0.000004
vn 0.000001 -1.000000 0.000002
vn -0.000002 -1.000000 0.000006
vn 0.000000 -1.000000 -0.000004
vn 0.909724 -0.002873 -0.415203
vn -0.910588 0.002876 -0.413306
usemtl 
s off
f 1//1 3//1 4//1
f 1//1 4//1 2//1
f 3//2 5//2 6//2
f 3//2 6//2 4//2
f 5//3 7//3 8//3
f 5//3 8//3 6//3
f 7//4 9//4 10//4
f 7//4 10//4 8//4
f 9//5 11//5 12//5
f 9//5 12//5 10//5
f 11//6 13//6 14//6
f 11//6 14//6 12//6
f 13//7 15//7 16//7
f 13//7 16//7 14//7
f 15//8 17//8 18//8
f 15//8 18//8 16//8
f 17//9 19//9 20//9
f 17//9 20//9 18//9
f 19//10 21//10 22//10
f 19//10 22//10 20//10
f 21//11 23//11 24//11
f 21//11 24//11 22//11
f 23//12 25//12 26//12
f 23//12 26//12 24//12
f 25//13 27//13 28//13
f 25//13 28//13 26//13
f 27//14 29//14 30//14
f 27//14 30//14 28//14
f 29//15 31//15 32//15
f 29//15 32//15 30//15
f 31//16 33//16 34//16
f 31//16 34//16 32//16
f 33//17 35//17 36//17
f 33//17 36//17 34//17
f 35//18 37//18 38//18
f 35//18 38//18 36//18
f 37//19 39//19 40//19
f 37//19 40//19 38//19
f 39//20 41//20 42//20
f 39//20 42//20 40//20
f 41//21 43//21 44//21
f 41//21 44//21 42//21
f 45//22 47//22 48//22
f 45//22 48//22 46//22
f 47//23 49//23 50//23
f 47//23 50//23 48//23
f 49//24 51//24 52//24
f 49//24 52//24 50//24
f 42//25 44//25 55//25
f 40//25 42//25 55//25
f 38//25 40//25 55//25
f 36//25 38//25 55//25
f 34//25 36//25 55//25
f 53//26 1//26 2//26
f 53//26 2//26 54//26
f 51//27 53//27 54//27
f 51//27 54//27 52//27
f 56//25 45//25 47//25
f 56//25 47//25 49//25
f 56//25 49//25 51//25
f 53//25 56//25 51//25
f 53//25 1//25 56//25
f 4//25 55//25 2//25
f 4//25 6//25 55//25
f 6//25 8//25 55//25
f 8//25 18//25 55//25
f 8//28 10//28 18//28
f 10//25 12//25 18//25
f 12//29 14//29 18//29
f 14//30 16//30 18//30
f 32//25 34//25 55//25
f 30//25 32//25 55//25
f 28//25 30//25 55//25
f 18//25 28//25 55//25
f 18//31 26//31 28//31
f 18//32 24//32 26//32
f 18//33 22//33 24//33
f 18//25 20//25 22//25
f 1//25 3//25 56//25
f 3//25 5//25 56//25
f 5//25 7//25 56//25
f 7//25 17//25 56//25
f 7//25 9//25 17//25
f 9//28 11//28 17//28
f 11//34 13//34 17//34
f 13//34 15//34 17//34
f 56//25 41//25 43//25
f 56//25 39//25 41//25
f 56//25 37//25 39//25
f 56//25 35//25 37//25
f 56//25 33//25 35//25
f 56//25 31//25 33//25
f 56//25 29//25 31//25
f 56//25 27//25 29//25
f 56//25 17//25 27//25
f 17//25 25//25 27//25
f 17//31 23//31 25//31
f 17//35 21//35 23//35
f 17//36 19//36 21//36
f 55//25 46//25 48//25
f 55//25 48//25 50//25
f 55//25 50//25 52//25
f 55//25 52//25 54//25
f 2//25 55//25 54//25
f 44//37 43//37 56//37
f 44//37 56//37 55//37
f 55//38 56//38 45//38
f 55//38 45//38 46//38
