# Blender v2.64 (sub 0) OBJ File: 'Pacman.blend'
# www.blender.org
mtllib Pacman.mtl
o Cylinder
v 0.000000 -0.553886 -1.000000
v 0.000000 0.553886 -1.000000
v 0.195090 -0.553886 -0.980785
v 0.195090 0.553886 -0.980785
v 0.382683 -0.553886 -0.923880
v 0.382683 0.553886 -0.923880
v 0.555570 -0.553886 -0.831470
v 0.555570 0.553886 -0.831470
v 0.707107 -0.553886 -0.707107
v 0.707107 0.553886 -0.707107
v 0.831470 -0.553886 -0.555570
v 0.831470 0.553886 -0.555570
v 0.923880 -0.553886 -0.382683
v 0.923880 0.553886 -0.382683
v 0.980785 -0.553886 -0.195090
v 0.980785 0.553886 -0.195090
v 1.000000 -0.553886 -0.000000
v 1.000000 0.553886 -0.000000
v 0.980785 -0.553886 0.195090
v 0.980785 0.553886 0.195090
v 0.923880 -0.553886 0.382683
v 0.923880 0.553886 0.382683
v 0.831470 -0.553886 0.555570
v 0.831470 0.553886 0.555570
v 0.707107 -0.553886 0.707107
v 0.707107 0.553886 0.707107
v 0.555570 -0.553886 0.831470
v 0.555570 0.553886 0.831470
v 0.382683 -0.553886 0.923880
v 0.382683 0.553886 0.923880
v 0.195090 -0.553886 0.980785
v 0.195090 0.553886 0.980785
v -0.000000 -0.553886 1.000000
v -0.000000 0.553886 1.000000
v -0.195091 -0.553886 0.980785
v -0.195091 0.553886 0.980785
v -0.382684 -0.553886 0.923879
v -0.382684 0.553886 0.923879
v -0.555571 -0.553886 0.831469
v -0.555571 0.553886 0.831469
v -0.707107 -0.553886 0.707106
v -0.707107 0.553886 0.707106
v -0.831470 -0.553886 0.555570
v -0.831470 0.553886 0.555570
v -0.831469 -0.553886 -0.555571
v -0.831469 0.553886 -0.555571
v -0.707106 -0.553886 -0.707108
v -0.707106 0.553886 -0.707108
v -0.555569 -0.553886 -0.831470
v -0.555569 0.553886 -0.831470
v -0.382682 -0.553886 -0.923880
v -0.382682 0.553886 -0.923880
v -0.195089 -0.553886 -0.980786
v -0.195089 0.553886 -0.980786
v 0.389170 0.553886 0.001962
v 0.389170 -0.553886 -0.005036
vn 0.098017 0.000000 -0.995185
vn 0.290285 0.000000 -0.956940
vn 0.471397 0.000000 -0.881921
vn 0.634393 0.000000 -0.773010
vn 0.773010 0.000000 -0.634393
vn 0.881921 0.000000 -0.471397
vn 0.956940 0.000000 -0.290285
vn 0.995185 0.000000 -0.098017
vn 0.995185 0.000000 0.098017
vn 0.956940 0.000000 0.290285
vn 0.881921 0.000000 0.471397
vn 0.773010 0.000000 0.634393
vn 0.634393 0.000000 0.773010
vn 0.471397 0.000000 0.881921
vn 0.290284 0.000000 0.956940
vn 0.098017 0.000000 0.995185
vn -0.098018 0.000000 0.995185
vn -0.290285 0.000000 0.956940
vn -0.471397 0.000000 0.881921
vn -0.634394 0.000000 0.773010
vn -0.773011 0.000000 0.634393
vn -0.773010 0.000000 -0.634394
vn -0.634392 0.000000 -0.773011
vn -0.471396 0.000000 -0.881922
vn -0.000000 1.000000 -0.000000
vn -0.098017 0.000000 -0.995185
vn -0.290283 0.000000 -0.956941
vn -0.000000 -1.000000 0.000000
vn -0.415203 0.002874 -0.909724
vn -0.413306 -0.002876 0.910588
usemtl 
s off
f 1//1 2//1 4//1
f 1//1 4//1 3//1
f 3//2 4//2 6//2
f 3//2 6//2 5//2
f 5//3 6//3 8//3
f 5//3 8//3 7//3
f 7//4 8//4 10//4
f 7//4 10//4 9//4
f 9//5 10//5 12//5
f 9//5 12//5 11//5
f 11//6 12//6 14//6
f 11//6 14//6 13//6
f 13//7 14//7 16//7
f 13//7 16//7 15//7
f 15//8 16//8 18//8
f 15//8 18//8 17//8
f 17//9 18//9 20//9
f 17//9 20//9 19//9
f 19//10 20//10 22//10
f 19//10 22//10 21//10
f 21//11 22//11 24//11
f 21//11 24//11 23//11
f 23//12 24//12 26//12
f 23//12 26//12 25//12
f 25//13 26//13 28//13
f 25//13 28//13 27//13
f 27//14 28//14 30//14
f 27//14 30//14 29//14
f 29//15 30//15 32//15
f 29//15 32//15 31//15
f 31//16 32//16 34//16
f 31//16 34//16 33//16
f 33//17 34//17 36//17
f 33//17 36//17 35//17
f 35//18 36//18 38//18
f 35//18 38//18 37//18
f 37//19 38//19 40//19
f 37//19 40//19 39//19
f 39//20 40//20 42//20
f 39//20 42//20 41//20
f 41//21 42//21 44//21
f 41//21 44//21 43//21
f 45//22 46//22 48//22
f 45//22 48//22 47//22
f 47//23 48//23 50//23
f 47//23 50//23 49//23
f 49//24 50//24 52//24
f 49//24 52//24 51//24
f 34//25 55//25 44//25
f 34//25 44//25 42//25
f 34//25 42//25 40//25
f 34//25 40//25 38//25
f 34//25 38//25 36//25
f 2//26 1//26 53//26
f 2//26 53//26 54//26
f 51//27 52//27 54//27
f 51//27 54//27 53//27
f 53//28 1//28 56//28
f 53//28 56//28 51//28
f 56//28 49//28 51//28
f 56//28 47//28 49//28
f 56//28 45//28 47//28
f 4//25 2//25 55//25
f 4//25 55//25 6//25
f 55//25 8//25 6//25
f 55//25 10//25 8//25
f 55//25 12//25 10//25
f 55//25 14//25 12//25
f 55//25 16//25 14//25
f 55//25 18//25 16//25
f 18//25 55//25 20//25
f 55//25 34//25 20//25
f 34//25 22//25 20//25
f 34//25 24//25 22//25
f 34//25 26//25 24//25
f 34//25 28//25 26//25
f 34//25 30//25 28//25
f 34//25 32//25 30//25
f 1//28 3//28 56//28
f 3//28 5//28 56//28
f 5//28 7//28 56//28
f 7//28 9//28 56//28
f 9//28 11//28 56//28
f 11//28 13//28 56//28
f 13//28 15//28 56//28
f 15//28 17//28 56//28
f 56//28 33//28 43//28
f 33//28 41//28 43//28
f 33//28 39//28 41//28
f 33//28 37//28 39//28
f 33//28 35//28 37//28
f 56//28 17//28 33//28
f 17//28 19//28 33//28
f 19//28 21//28 33//28
f 21//28 23//28 33//28
f 23//28 25//28 33//28
f 25//28 27//28 33//28
f 27//28 29//28 33//28
f 29//28 31//28 33//28
f 2//25 54//25 55//25
f 54//25 52//25 55//25
f 52//25 50//25 55//25
f 50//25 48//25 55//25
f 48//25 46//25 55//25
f 44//29 55//29 56//29
f 44//29 56//29 43//29
f 55//30 46//30 45//30
f 55//30 45//30 56//30
