# Blender v2.64 (sub 0) OBJ File: 'Pacman.blend'
# www.blender.org
mtllib Pacman.mtl
o Cylinder
v -0.814284 -0.553886 0.185606
v -0.814284 0.553886 0.185606
v -0.795069 -0.553886 -0.009485
v -0.795069 0.553886 -0.009485
v -0.738164 -0.553886 -0.197078
v -0.738164 0.553886 -0.197078
v -0.645754 -0.553886 -0.369965
v -0.645754 0.553886 -0.369965
v -0.521391 -0.553886 -0.521501
v -0.521391 0.553886 -0.521501
v -0.369854 -0.553886 -0.645864
v -0.369854 0.553886 -0.645864
v -0.196967 -0.553886 -0.738274
v -0.196967 0.553886 -0.738274
v -0.009374 -0.553886 -0.795179
v -0.009374 0.553886 -0.795179
v 0.185716 -0.553886 -0.814394
v 0.185716 0.553886 -0.814394
v 0.380806 -0.553886 -0.795180
v 0.380806 0.553886 -0.795180
v 0.568399 -0.553886 -0.738274
v 0.568399 0.553886 -0.738274
v 0.741286 -0.553886 -0.645864
v 0.741286 0.553886 -0.645864
v 0.892823 -0.553886 -0.521501
v 0.892823 0.553886 -0.521501
v 1.017186 -0.553886 -0.369964
v 1.017186 0.553886 -0.369964
v 1.109596 -0.553886 -0.197078
v 1.109596 0.553886 -0.197078
v 1.166501 -0.553886 -0.009484
v 1.166501 0.553886 -0.009484
v 1.185716 -0.553886 0.185606
v 1.185716 0.553886 0.185606
v 1.166501 -0.553886 0.380697
v 1.166501 0.553886 0.380697
v 1.109595 -0.553886 0.568290
v 1.109595 0.553886 0.568290
v 1.017185 -0.553886 0.741177
v 1.017185 0.553886 0.741177
v 0.892822 -0.553886 0.892713
v 0.892822 0.553886 0.892713
v 0.741285 -0.553886 1.017076
v 0.741285 0.553886 1.017076
v -0.369855 -0.553886 1.017075
v -0.369855 0.553886 1.017075
v -0.521392 -0.553886 0.892712
v -0.521392 0.553886 0.892712
v -0.645755 -0.553886 0.741175
v -0.645755 0.553886 0.741175
v -0.738164 -0.553886 0.568288
v -0.738164 0.553886 0.568288
v -0.795070 -0.553886 0.380694
v -0.795070 0.553886 0.380694
v 0.187678 0.553886 -0.203564
v 0.180680 -0.553886 -0.203564
vn -0.995185 -0.000000 -0.098017
vn -0.956940 -0.000000 -0.290285
vn -0.881921 -0.000000 -0.471396
vn -0.773010 -0.000000 -0.634394
vn -0.634393 -0.000000 -0.773010
vn -0.471396 -0.000000 -0.881921
vn -0.290285 -0.000000 -0.956940
vn -0.098017 -0.000000 -0.995185
vn 0.098017 0.000000 -0.995185
vn 0.290285 0.000000 -0.956940
vn 0.471397 0.000000 -0.881921
vn 0.634393 0.000000 -0.773010
vn 0.773011 0.000000 -0.634393
vn 0.881921 0.000000 -0.471397
vn 0.956941 0.000000 -0.290284
vn 0.995185 0.000000 -0.098017
vn 0.995185 0.000000 0.098018
vn 0.956940 0.000000 0.290285
vn 0.881921 0.000000 0.471397
vn 0.773010 0.000000 0.634394
vn 0.634393 0.000000 0.773011
vn -0.634394 0.000000 0.773010
vn -0.773011 0.000000 0.634393
vn -0.881922 0.000000 0.471396
vn -0.000000 1.000000 0.000000
vn -0.995185 0.000000 0.098016
vn -0.956941 0.000000 0.290283
vn 0.000000 -1.000000 0.000000
vn -0.910712 0.000000 0.413043
vn 0.909593 -0.005746 0.415462
vn -0.908727 0.005741 0.417352
vn 0.911572 -0.000000 0.411140
usemtl 
s off
f 1//1 2//1 4//1
f 3//2 4//2 6//2
f 5//3 6//3 8//3
f 7//4 8//4 10//4
f 9//5 10//5 12//5
f 11//6 12//6 14//6
f 13//7 14//7 16//7
f 15//8 16//8 18//8
f 17//9 18//9 20//9
f 19//10 20//10 22//10
f 21//11 22//11 24//11
f 23//12 24//12 26//12
f 25//13 26//13 28//13
f 27//14 28//14 30//14
f 29//15 30//15 32//15
f 31//16 32//16 34//16
f 33//17 34//17 36//17
f 35//18 36//18 38//18
f 37//19 38//19 40//19
f 39//20 40//20 42//20
f 41//21 42//21 44//21
f 45//22 46//22 48//22
f 47//23 48//23 50//23
f 49//24 50//24 52//24
f 34//25 55//25 36//25
f 53//26 54//26 2//26
f 51//27 52//27 54//27
f 53//28 1//28 56//28
f 16//25 55//25 18//25
f 18//25 55//25 20//25
f 56//28 15//28 17//28
f 56//28 33//28 43//28
f 56//28 17//28 33//28
f 2//25 54//25 55//25
f 44//29 55//29 43//29
f 55//30 46//30 56//30
f 3//1 1//1 4//1
f 5//2 3//2 6//2
f 7//3 5//3 8//3
f 9//4 7//4 10//4
f 11//5 9//5 12//5
f 13//6 11//6 14//6
f 15//7 13//7 16//7
f 17//8 15//8 18//8
f 19//9 17//9 20//9
f 21//10 19//10 22//10
f 23//11 21//11 24//11
f 25//12 23//12 26//12
f 27//13 25//13 28//13
f 29//14 27//14 30//14
f 31//15 29//15 32//15
f 33//16 31//16 34//16
f 35//17 33//17 36//17
f 37//18 35//18 38//18
f 39//19 37//19 40//19
f 41//20 39//20 42//20
f 43//21 41//21 44//21
f 47//22 45//22 48//22
f 49//23 47//23 50//23
f 51//24 49//24 52//24
f 55//25 44//25 36//25
f 44//25 42//25 36//25
f 42//25 40//25 38//25
f 36//25 42//25 38//25
f 1//26 53//26 2//26
f 53//27 51//27 54//27
f 51//28 53//28 56//28
f 49//28 51//28 56//28
f 47//28 49//28 56//28
f 45//28 47//28 56//28
f 14//25 55//25 16//25
f 12//25 55//25 14//25
f 10//25 55//25 12//25
f 8//25 55//25 10//25
f 6//25 55//25 8//25
f 4//25 2//25 55//25
f 6//25 4//25 55//25
f 55//25 34//25 20//25
f 34//25 32//25 20//25
f 32//25 30//25 20//25
f 30//25 28//25 20//25
f 28//25 26//25 20//25
f 26//25 24//25 20//25
f 24//25 22//25 20//25
f 56//28 13//28 15//28
f 56//28 11//28 13//28
f 56//28 9//28 11//28
f 56//28 7//28 9//28
f 56//28 5//28 7//28
f 1//28 3//28 56//28
f 3//28 5//28 56//28
f 33//28 35//28 43//28
f 35//28 37//28 43//28
f 37//28 39//28 41//28
f 43//28 37//28 41//28
f 17//28 19//28 33//28
f 19//28 21//28 33//28
f 21//28 23//28 33//28
f 23//28 25//28 33//28
f 25//28 27//28 33//28
f 27//28 29//28 31//28
f 33//28 27//28 31//28
f 54//25 52//25 55//25
f 52//25 50//25 55//25
f 50//25 48//25 55//25
f 48//25 46//25 55//25
f 55//31 56//31 43//31
f 46//32 45//32 56//32
